<svg width="53" height="53" viewBox="0 0 53 53" fill="none" xmlns="http://www.w3.org/2000/svg">
<path d="M8 30.0531V23.804C12.0188 24.1662 13.0543 27.4568 13.0696 29.0568C11.5948 29.3829 9.07538 29.8568 8 30.0531Z" fill="#EB7A7D"/>
<path d="M22.7942 35.94C17.2636 31.2305 11.303 32.106 9.01394 33.1324C8.64524 32.2629 8.33799 31.3814 8.23045 31.0493C17.0056 27.8976 23.4087 32.6644 25.5133 35.4418C24.3335 35.6592 23.209 35.8645 22.7942 35.94Z" fill="#3EB595"/>
<path d="M10.3044 35.8946L9.24438 33.9474C15.8073 31.6651 20.4591 34.6568 21.9646 36.438C21.3378 37.0538 20.3822 37.4191 19.9828 37.5248C16.2589 34.9164 11.9789 35.3512 10.3044 35.8946Z" fill="#1B6578"/>
<path d="M19.1993 38.3853C18.5356 39.291 17.3251 41.4193 16.8027 42.3702C14.3693 41.0298 11.8253 38.0381 10.8574 36.7098C15.7243 35.3694 18.4465 37.2683 19.1993 38.3853Z" fill="#1B6578"/>
<path d="M40.5379 38.521C37.8833 42.2162 32.4265 44.0456 30.0299 44.4985C30.9148 38.7384 35.2839 36.8154 37.3579 36.5739C38.5009 37.1897 39.9542 38.1286 40.5379 38.521Z" fill="#1B6578"/>
<path d="M36.2978 35.6683C34.823 34.183 33.7169 32.121 33.3482 31.2758C29.5875 32.4712 27.6334 34.9437 27.1264 36.0305C28.0481 37.0811 29.2925 40.3325 29.7995 41.8268C31.2005 38.349 34.7155 36.272 36.2978 35.6683Z" fill="#3EB595"/>
<path d="M41.091 37.6153C37.6252 36.8546 35.0074 32.8002 34.1317 30.8681C38.9249 29.2379 43.0728 30.3096 44.5476 31.0492C43.9945 34.2734 42.0127 36.7701 41.091 37.6153Z" fill="#1B6578"/>
<path d="M44.8702 30.0077C43.211 29.9715 40.7069 29.3586 39.6622 29.0567C40.3536 28.1058 40.8605 26.4756 43.2571 26.9284C45.1743 27.2907 45.1313 29.1322 44.8702 30.0077Z" fill="#3EB595"/>
<path d="M33.3482 20.5888C32.5371 25.2983 28.7702 26.8077 26.9881 26.9738C26.8038 29.1112 26.9113 32.9059 26.9881 34.5361C30.3802 30.5512 36.2364 29.1625 38.7405 28.9663C39.4042 22.1556 35.4222 20.5435 33.3482 20.5888Z" fill="#3EB595"/>
<path d="M25.9742 34.5361C22.6928 31.2032 18.677 29.8266 17.0793 29.5549C19.5496 28.4681 21.5498 26.385 22.2411 25.4794C22.5729 25.7692 24.8681 26.5662 25.9742 26.9284V34.5361Z" fill="#3EB595"/>
<path d="M19.568 18.3247C19.273 21.6213 20.6434 24.0153 21.3654 24.8002C18.6002 28.8214 15.4815 29.2229 14.2679 28.921C13.7148 26.204 14.1911 23.17 14.4983 21.9926C16.0469 18.9133 18.5233 18.2643 19.568 18.3247Z" fill="#EB7A7D"/>
<path d="M20.3515 18.1888C20.2747 19.8492 20.4713 23.3059 21.8724 23.8493C22.8863 22.1134 24.0016 18.5511 20.3515 18.1888Z" fill="#F4D45D"/>
<path d="M23.7159 15.6529C23.5684 16.7035 23.0707 17.8718 22.8402 18.3247C21.8079 17.8899 20.8277 17.2831 20.4898 17.0114C20.3423 15.2001 20.6127 14.4152 20.7663 14.2491C21.7986 14.4303 23.1628 15.2605 23.7159 15.6529Z" fill="#FBF6A8"/>
<path d="M30.2604 13.8868C28.1588 14.6476 26.8345 16.6793 26.4351 17.6001C26.2661 17.434 25.8083 16.9299 25.329 16.2416C24.8497 15.5533 25.1907 14.8378 25.4211 14.5661C25.6516 14.3095 26.3521 13.6061 27.3107 12.8453C28.2694 12.0845 29.6766 13.2227 30.2604 13.8868Z" fill="#FBF6A8"/>
<path d="M26.8499 25.8869C26.9267 24.1661 28.1588 20.7065 32.4726 20.634C32.2421 22.385 30.795 25.8869 26.8499 25.8869Z" fill="#F4D45D"/>
<path d="M44.8241 23.3058C43.0174 16.2054 36.3286 14.2491 33.21 14.1586L33.0256 19.6379C38.5193 20.2537 39.6469 24.8455 39.524 27.0644C42.2524 25.3255 44.2557 26.4304 44.9163 27.2002L44.8241 23.3058Z" fill="#EB7A7D"/>
<path d="M32.5322 19.7737V14.3397C26.7067 14.4484 26.3872 20.1511 26.9556 22.9889C28.7254 20.3805 31.4107 19.7586 32.5322 19.7737Z" fill="#F4D45D"/>
<path d="M28.1864 11.264L26.7577 8.00357C36.2702 7.82244 41.6287 14.5697 43.1189 17.9659C39.6162 14.2708 35.1764 13.3168 33.3943 13.3017C33.3943 11.9251 33.2407 10.7357 33.1639 10.313C31.8734 10.0957 29.3079 10.8564 28.1864 11.264Z" fill="#F7AE75"/>
<path d="M24.2229 14.7472C17.7706 10.9434 11.1186 16.3322 8.59913 19.502C12.4336 10.7351 21.6266 8.24152 25.7438 8.09058C25.9281 9.75701 26.9574 11.1699 27.449 11.668L24.2229 14.7472Z" fill="#F7AE75"/>
<path d="M26.1125 21.4492C26.0664 22.4001 26.1125 25.9322 26.1125 25.9322C24.0846 26.1496 22.9632 24.9964 22.6559 24.3926C22.9785 23.5171 23.6237 21.3767 23.6237 19.819C23.6237 18.2612 24.2997 16.785 24.6377 16.2416C26.1493 18.1978 26.1586 20.4982 26.1125 21.4492Z" fill="#F4D45D"/>
<path d="M32.0117 13.434C29.9101 12.9268 29.2004 12.2264 29.1082 11.9396C30.6936 10.9615 31.8274 11.1094 32.1961 11.3056C32.7122 12.3562 32.2882 13.1623 32.0117 13.434Z" fill="#FBF6A8"/>
<path d="M11.8253 24.6644C10.7929 23.5051 8.96783 22.9738 8.18434 22.853C8.06144 22.2643 8.51617 20.3805 11.3183 17.5549C14.1204 14.7292 17.9857 14.2341 19.568 14.3397V17.3737C18.7999 17.2681 16.8027 17.582 14.9592 19.6832C13.1157 21.7843 13.1772 24.9663 13.4383 26.2946C13.3308 26.2342 12.8576 25.8236 11.8253 24.6644Z" fill="#F7AE75"/>
<path d="M29.1543 44.2721C28.7856 45.2864 27.4029 44.906 26.7577 44.589C26.7577 41.0026 24.6684 37.8116 23.6237 36.6644C24.5824 36.3384 25.6516 36.3173 26.0664 36.3475C27.8638 37.7965 29.6151 43.0041 29.1543 44.2721Z" fill="#1B6578"/>
<path d="M20.3976 38.4757C18.8491 39.7437 17.9089 41.8418 17.6323 42.7324C18.1086 42.989 19.3099 43.5747 20.3054 43.8645C21.5498 44.2267 23.3933 44.9513 24.4533 44.9966C25.3013 45.0328 25.882 44.7701 26.0664 44.6343C25.5133 40.0697 23.5623 37.6003 22.6559 36.9361C22.5484 36.921 21.9461 37.2078 20.3976 38.4757Z" fill="#1B6578"/>
</svg>
