<?xml version="1.0" standalone="no"?>
<!DOCTYPE svg PUBLIC "-//W3C//DTD SVG 20010904//EN"
 "http://www.w3.org/TR/2001/REC-SVG-20010904/DTD/svg10.dtd">
<svg version="1.0" xmlns="http://www.w3.org/2000/svg"
 width="32.000000pt" height="32.000000pt" viewBox="0 0 32.000000 32.000000"
 preserveAspectRatio="xMidYMid meet">

<g transform="translate(0.000000,32.000000) scale(0.100000,-0.100000)"
fill="#000000" stroke="none">
<path d="M139 294 c-9 -11 -10 -20 -3 -32 15 -23 29 -25 48 -7 12 12 13 21 6
36 -13 23 -33 25 -51 3z"/>
<path d="M99 181 c-27 -27 -29 -35 -29 -100 0 -64 2 -71 20 -71 18 0 20 7 20
60 0 47 4 64 20 80 46 46 80 14 80 -76 0 -62 1 -64 25 -64 24 0 25 3 25 55 0
71 -21 122 -55 135 -45 17 -75 11 -106 -19z"/>
</g>
</svg>
