<svg id="Layer_1" data-name="Layer 1" xmlns="http://www.w3.org/2000/svg" viewBox="0 0 626.83 117.96"><defs><style>.cls-1{fill:#ea797d;}.cls-2{fill:#f5ae75;}.cls-3{fill:#f4d35e;}.cls-4{fill:#156578;}.cls-5{fill:#fdf6a8;}.cls-6{fill:#46b494;}.cls-7{fill:#010101;}</style></defs><path class="cls-1" d="M161.39,271.88l-.76,0-1.44-.45c-1.22-.38-.2-12.29-.14-14l.12-3.31c.07-1.28,11.23,1.5,12.47,2,7.29,3.07,14.54,8.17,18.89,14.85a37.19,37.19,0,0,1,6.19,22.65c0,.48-.48.94-.74,1.41l0,0-1.43-1.12-.64-.42a11,11,0,0,0-7.42-1.65c-1,.13-7.44,2.16-7.42,3.18,0-1.23-.05-2.46-.07-3.68l-.69-4.05-.12-.73C176.92,279.19,168.77,272.31,161.39,271.88Z" transform="translate(-79.52 -233.86)"/><path class="cls-2" d="M84.94,271.54a66.92,66.92,0,0,1,5.11-6.11,43.59,43.59,0,0,1,21.31-11.22,3.39,3.39,0,0,1,.55,0c4.9-.42,4.9-.42,4.89,4.43V261c0,2.94,0,2.88-2.93,3.4-6.11,1.1-10.45,4.65-13.69,9.83a21.08,21.08,0,0,0-2.94,12.63c.08,1.57,0,3.13,0,5.19l-3.17-2.69-.75-1-.75-.75h0l-1.14-1.1-.35-.35c-2.22-2.3-5.08-3.34-8.09-4.05-1-.24-2.06-.39-1.94-1.82,0-.36.07-.72.11-1.08a23.8,23.8,0,0,1,1.77-4.41A24.64,24.64,0,0,1,84.94,271.54Z" transform="translate(-79.52 -233.86)"/><path class="cls-2" d="M167,252.44a36.07,36.07,0,0,0-5.55-.84c-1.68-.12-2.29-.75-2.23-2.38.08-1.9,0-3.8,0-5.7,0-1.41-.46-2-1.92-2a27.46,27.46,0,0,0-11.88,2.62c-1.18.53-2.18.5-2.7-.55a74.35,74.35,0,0,1-3.31-7.68c-.49-1.36.22-2.15,1.84-2.07a58.35,58.35,0,0,1,20.38,4.85,57.15,57.15,0,0,1,18.48,12.71c6.92,7.15,10.76,13.92,10.16,14.42a.87.87,0,0,1-.63.11,1,1,0,0,1-.58-.38c-.92-1.09-2.07-2-3.09-3A40.67,40.67,0,0,0,167,252.44Z" transform="translate(-79.52 -233.86)"/><path class="cls-3" d="M140,282c-.24-.3-.69-.6-.68-.89.17-4.52-.15-9.15.75-13.52,1.33-6.45,5.76-10.6,12-12.79a9.13,9.13,0,0,0,1.27-.68l1.09-.12,2.55.15c0,1.08.07,2.17.1,3.25v1.12q-.06,6.38-.11,12.76l-1,.51-1.83.12c-2.89.56-5.71,1.27-7.87,3.47a.32.32,0,0,0-.25.08l-1.18,1,.08.05-.08-.05L143.25,278l-.73.75.07.07-.06-.07-.74.75.08,0-.07-.06-1.46,1.88Z" transform="translate(-79.52 -233.86)"/><path class="cls-4" d="M141.87,330.72a61.93,61.93,0,0,1,4.4,13.32c.35,1.69.88,4.23.07,5.89-.73,1.5-2.76,1.51-4.19,1.49s-2.86,0-3-1.89a41.56,41.56,0,0,0-9.24-22.94c-.34-.4-.69-1-.32-1.41A1,1,0,0,1,130,325a23.94,23.94,0,0,1,6-.9,3.36,3.36,0,0,1,2.36,1.2c1.23,1.57,2.21,3.34,3.3,5C141.74,330.43,141.81,330.58,141.87,330.72Z" transform="translate(-79.52 -233.86)"/><path class="cls-3" d="M156.92,274.4c0,.23,0,.46,0,.7-1.38,3.86-2.43,7.55-5.33,10.6a19.93,19.93,0,0,1-10.21,5.46c-1,.21-1.86.32-2.16-1,0-.37.05-.73.07-1.1.18-2.74,2.62-6.41,4.21-8.55C145.86,277.37,152.71,272.48,156.92,274.4Z" transform="translate(-79.52 -233.86)"/><path class="cls-5" d="M154.38,251.25c-2.22-1-6.92-2.27-8.09-4.51,1.84-1.38,9.27-4.59,10.29-1.18C157,246.84,157.3,252.56,154.38,251.25Z" transform="translate(-79.52 -233.86)"/><path class="cls-2" d="M93,255.17a61.29,61.29,0,0,1,6.71-6.71,62.6,62.6,0,0,1,8.47-6s12.23-6.36,23.65-8.21a12,12,0,0,1,1.47,0c3.16,0,2.94,0,3.55,3.15.51,2.65,1.28,5.36,3.47,7.28.83.73.88,1.27,0,2.07-2.34,2.22-4.62,4.5-6.89,6.8-.72.72-1.23,2-2,2.21s-1.77-.81-2.65-1.32C123,251,116.72,251,110.3,252.22a37.87,37.87,0,0,0-6.87,1.9,37.11,37.11,0,0,0-11.52,6.94,47.12,47.12,0,0,0-5.2,5.61c-.49.65-1.06,1.24-1.51,1.92-.72,1.1-1.07,2-1.91,2.19a1.77,1.77,0,0,1-.83,0c1.27-2.12,2.53-4.24,3.8-6.35.66-1.05,1.53-2.4,2.61-3.92C89.65,259.41,91.06,257.43,93,255.17Z" transform="translate(-79.52 -233.86)"/><path class="cls-1" d="M99.2,289.72a33.88,33.88,0,0,1,1.07-9.62c2.15-8.16,11.41-13.05,13.92-13.44s2.63-.23,2.62,2.24c0,4.23-.2,8.5,1.85,12.4a42.41,42.41,0,0,0,3.1,5,1.93,1.93,0,0,1,0,2.62,29.05,29.05,0,0,1-20.08,12.34c-2.28.36-2.41-1.8-2.29-3.5A76.33,76.33,0,0,0,99.2,289.72Z" transform="translate(-79.52 -233.86)"/><path class="cls-3" d="M137.07,290.58c-2.09,2.54-12-2.11-10.7-4.89,1.95-4.18,2.56-8.8,2.87-13.36a39.73,39.73,0,0,1,.61-5.87c.18-.82,2.47-6,2.25-6.32,2.53,3.72,5,8.07,5,12.77Q137.07,281.75,137.07,290.58Z" transform="translate(-79.52 -233.86)"/><path class="cls-5" d="M150.14,253.05c-.48-.82-6.46,3.9-7,4.43a35.73,35.73,0,0,0-5.14,7.34c-1.27-2-4.61-5-4.31-7.48s4.74-5.5,6.36-7.14c3.41-3.42,6.3-.22,9.55,2C149.78,252.28,149.85,252.56,150.14,253.05Z" transform="translate(-79.52 -233.86)"/><path class="cls-3" d="M123.76,284.83a16.72,16.72,0,0,1-4.31-9.43c-.26-2.47-.06-5-.22-7.48-.1-1.67.61-1.69,1.87-1.27a7.79,7.79,0,0,1,5.65,8C126.68,277.91,125.3,282.87,123.76,284.83Z" transform="translate(-79.52 -233.86)"/><path class="cls-5" d="M119.38,259v-2.77c0-2,.51-2.56,2.42-1.89a49.56,49.56,0,0,1,7.1,3.28,2.42,2.42,0,0,1,.59,2.12c-.54,2.19-1.33,4.31-2,6.46-.32,1-.81,1-1.66.51-1.73-1-3.56-1.77-5.26-2.78a2.61,2.61,0,0,1-1.12-1.63,21.33,21.33,0,0,1,0-3.3Z" transform="translate(-79.52 -233.86)"/><path class="cls-6" d="M135.25,321.23c-2.77.68-5.11,1.35-7.49,1.79a2.72,2.72,0,0,1-1.91-.81,40.36,40.36,0,0,0-21.35-10.3,38.89,38.89,0,0,0-19.2,1.52c-1.66.58-2.38.25-2.76-1.4a21.57,21.57,0,0,0-1.05-3.31c-.58-1.4,0-2,1.28-2.38a49.07,49.07,0,0,1,51,13.14C134.22,320,134.62,320.47,135.25,321.23Z" transform="translate(-79.52 -233.86)"/><path class="cls-6" d="M123.05,290.94a.3.3,0,0,0,.13-.23c1-1.33,1.86-1.08,3.3-.37,2.87,1.42,6,2.31,9,3.51.53.21,1.26.83,1.27,1.27.07,7.42,0,14.84,0,22.26a6.12,6.12,0,0,1-.34,1.19,53.08,53.08,0,0,0-27.71-16.11,13.94,13.94,0,0,1,1.7-1.12,30,30,0,0,0,12.21-9.44A4.42,4.42,0,0,0,123.05,290.94Z" transform="translate(-79.52 -233.86)"/><path class="cls-4" d="M133.8,351.78c-4.31.37-9.73-2.11-13.29-3.25-4-1.29-6.13-1.67-8.93-3.4a8.56,8.56,0,0,1-.77-.49.36.36,0,0,1-.16-.28c1.16-2.73,2.08-5.71,3.8-8.14a33.06,33.06,0,0,1,7.91-7.79c2.11-1.49,3.18-2.24,4.07-2,1.43.33,2.4,2.4,3.16,3.52a39.74,39.74,0,0,1,5,10.45c.59,1.82,1.07,3.68,1.48,5.54.23,1.06,1.48,4.47.42,5.18A6.25,6.25,0,0,1,133.8,351.78Z" transform="translate(-79.52 -233.86)"/><path class="cls-4" d="M124.24,324.43c-1.89,1.29-3.64,2.62-5.55,3.68-.49.27-1.6-.15-2.19-.57a30.43,30.43,0,0,0-20.75-5.94,37.72,37.72,0,0,0-6.49,1.15c-1.21.31-1.84.06-2.35-1-.7-1.43-1.45-2.83-2.18-4.24-.43-.85-.2-1.31.75-1.61,14.06-4.39,26.72-1.85,38.06,7.51a3.64,3.64,0,0,1,.48.55A2.88,2.88,0,0,1,124.24,324.43Z" transform="translate(-79.52 -233.86)"/><path class="cls-4" d="M107.92,343.48c-3.14-2.4-6.27-4.38-8.89-6.89-3.21-3.08-6-6.59-9-9.92-.86-1-.71-1.58.64-1.89,8.62-2,16.64-.73,24,4.37,1.22.84,1.17,1.35.32,2.57-2.17,3.15-4.07,6.49-6.07,9.77C108.65,342,108.44,342.46,107.92,343.48Z" transform="translate(-79.52 -233.86)"/><path class="cls-6" d="M139.4,318.63c-.07-1.11-.14-1.64-.14-2.17,0-6.87,0-13.74,0-20.62,0-1.25.16-1.87,1.7-2.12,9.85-1.65,16.56-8.48,18.15-18.35.24-1.45,1-1.47,2.07-1.27a19.09,19.09,0,0,1,15.63,17.79c.14,2.57,0,5.15,0,7.72,0,1.25-.41,1.69-1.68,1.79a51.56,51.56,0,0,0-28.73,10.91c-1.82,1.44-3.48,3.08-5.21,4.64C140.72,317.38,140.25,317.84,139.4,318.63Z" transform="translate(-79.52 -233.86)"/><path class="cls-4" d="M178.34,304a47.67,47.67,0,0,1,15.12,2.4c1.09.34,1.48.92,1.16,2a55.48,55.48,0,0,1-9.55,19.32,2.32,2.32,0,0,1-2.13.57,38.16,38.16,0,0,1-20.44-20.16c-.5-1.13-.28-1.61.91-2A47.6,47.6,0,0,1,178.34,304Z" transform="translate(-79.52 -233.86)"/><path class="cls-6" d="M148.52,341.86a11.32,11.32,0,0,1-.77-1.67,50.88,50.88,0,0,0-7.22-16.39,2.43,2.43,0,0,1,.05-2.23,45.9,45.9,0,0,1,17.9-13.4,1.53,1.53,0,0,1,1.41.45,43,43,0,0,0,9.05,13.3c.07.07.07.22.18.63C159.52,325.72,152.65,332,148.52,341.86Z" transform="translate(-79.52 -233.86)"/><path class="cls-4" d="M176.81,337c-1.35,1.14-2.78,2.12-4.2,3.18a58.07,58.07,0,0,1-20.48,9.61c-.23.06-2.82.36-2.83.42a39,39,0,0,1,1.15-5.77c3.12-9.81,9.69-16.23,19.45-19.42a3.6,3.6,0,0,1,3.43.55c2.42,1.63,5,3,7.51,4.53l1.67,1c-.13-.08-4.12,4.42-4.56,4.84S177.2,336.64,176.81,337Z" transform="translate(-79.52 -233.86)"/><path class="cls-6" d="M179.48,301.06a8.68,8.68,0,0,1,7.41-7.13c3.83-.42,7.59,1.39,8.86,4.78.55,1.45.12,3.3,0,5,0,.19-1.05.5-1.55.41-4.43-.8-8.84-1.68-13.26-2.55A12.69,12.69,0,0,1,179.48,301.06Z" transform="translate(-79.52 -233.86)"/><path class="cls-1" d="M94.36,293.13a25.36,25.36,0,0,1,2.2,6.12c.34,1.31,0,1.94-1.68,2.19-4.33.63-8.61,1.62-12.89,2.58-1.08.24-1.69.18-1.76-1-.15-2.72-.3-5.59-.44-8.37s-.52-5.64,0-8.39c.38-2,1-2.34,3-1.81a19.92,19.92,0,0,1,9,5.37A15.14,15.14,0,0,1,94.36,293.13Z" transform="translate(-79.52 -233.86)"/><path class="cls-7" d="M258.48,263H228.71v-3.56h35.85l-34.25,59.28h37.37v3.55H224.26Z" transform="translate(-79.52 -233.86)"/><path class="cls-7" d="M309.6,259.45V263H281.74v26.08H309.6v3.56H281.74v26.08H309.6v3.55H278.19V259.45Z" transform="translate(-79.52 -233.86)"/><path class="cls-7" d="M341.49,287.49a26.43,26.43,0,0,1-10.6-6.11,13.3,13.3,0,0,1,18.86-18.77,11.64,11.64,0,0,1,3,4.66l-3.2,1.25a9.92,9.92,0,0,0-2.31-3.51,9.76,9.76,0,0,0-16.66,6.93,9.49,9.49,0,0,0,2.84,6.93,26.11,26.11,0,0,0,7.37,4.8,31.15,31.15,0,0,1,12.71,7.6,18.58,18.58,0,1,1-26.3,26.26,17.61,17.61,0,0,1-5.25-10.13l3.34-1.2a14.23,14.23,0,0,0,4.35,8.89A15.13,15.13,0,1,0,351,293.71,28.83,28.83,0,0,0,341.49,287.49Z" transform="translate(-79.52 -233.86)"/><path class="cls-7" d="M387.1,263v59.27h-3.51V263H367.68v-3.56H403V263Z" transform="translate(-79.52 -233.86)"/><path class="cls-7" d="M440.58,282.87a20.61,20.61,0,0,1,6.36,33.41,20.74,20.74,0,0,1-12.22,6h-20.4V259.45h18.75a12.88,12.88,0,0,1,9.11,22A11.34,11.34,0,0,1,440.58,282.87ZM417.88,263v18.31h16a9.33,9.33,0,0,0,5.78-2.31A9.39,9.39,0,0,0,433,263Zm14.53,55.77a16.14,16.14,0,0,0,11.9-5,17,17,0,0,0,0-24,16.15,16.15,0,0,0-11.9-5H417.88v33.9Z" transform="translate(-79.52 -233.86)"/><path class="cls-7" d="M465.14,322.28V259.45h3.55v59.28h23.95v3.55Z" transform="translate(-79.52 -233.86)"/><path class="cls-7" d="M554.41,268a32.24,32.24,0,1,1-22.82-9.44A31,31,0,0,1,554.41,268Zm-22.82-5.85a28.68,28.68,0,1,0,20.26,8.4A27.56,27.56,0,0,0,531.59,262.16Z" transform="translate(-79.52 -233.86)"/><path class="cls-7" d="M629.3,268a32.24,32.24,0,1,1-22.81-9.44A31,31,0,0,1,629.3,268Zm-22.81-5.85a28.68,28.68,0,1,0,20.26,8.4A27.56,27.56,0,0,0,606.49,262.16Z" transform="translate(-79.52 -233.86)"/><path class="cls-7" d="M706.35,259.45v62.83H702.8v-59l-24.31,31.85-24.35-31.85v59h-3.55V259.45h5.15l22.75,29.77,22.71-29.77Z" transform="translate(-79.52 -233.86)"/></svg>