<svg xmlns:xlink="http://www.w3.org/1999/xlink" xmlns="http://www.w3.org/2000/svg" viewBox="0 0 96 96" size="4" class="sc-bdvvtL gFEMnT" width="96"  height="96" ><rect fill="#FFEE55" width="96" height="96"></rect><path d="M51.7,25c1.4,5.7,0.9,10.7-1,11.2c-2,0.5-4.7-3.8-6-9.5c-1.4-5.7-0.9-10.7,1-11.2C47.6,15.1,50.3,19.3,51.7,25z"></path><path d="M74.5,29.9c-3.1-3.2-9.1-2.4-13.6,2s-5.6,10.4-2.5,13.7c3.1,3.2,9.1,2.4,13.6-2S77.5,33.2,74.5,29.9z"></path><path d="M50.2,79.5c2-0.5,2.4-5.8,0.9-11.9c-1.5-6.1-4.2-10.6-6.2-10.1c-2,0.5-2.4,5.8-0.9,11.9C45.4,75.4,48.2,80,50.2,79.5z"></path><path d="M30.3,32.9c5.6,1.7,9.8,4.6,9.2,6.5c-0.6,1.9-5.6,2.2-11.2,0.5c-5.6-1.7-9.8-4.6-9.2-6.5C19.6,31.4,24.6,31.2,30.3,32.9z"></path><path d="M66.8,54.7c6,1.8,10.4,4.8,9.8,6.7c-0.6,1.9-5.9,2.1-11.8,0.3C58.8,60,54.4,57,55,55C55.6,53.1,60.9,53,66.8,54.7z"></path><path d="M36.6,50.7c-1.4-1.4-6,0.7-10.2,4.7c-4.3,4.1-6.6,8.5-5.2,10c1.4,1.4,6-0.7,10.2-4.7S38,52.1,36.6,50.7z"></path></svg>