<svg width="32" height="32" viewBox="0 0 32 32" fill="none" xmlns="http://www.w3.org/2000/svg">
<path d="M16 3.99992C16.176 3.99992 16.3506 3.99992 16.524 3.99992C14.8111 5.59153 13.7101 7.73305 13.4124 10.0522C13.1146 12.3714 13.639 14.7216 14.8943 16.6942C16.1496 18.6669 18.0565 20.1373 20.2834 20.8499C22.5104 21.5625 24.9167 21.4721 27.084 20.5946C26.2503 22.6006 24.8877 24.3426 23.1416 25.6349C21.3954 26.9272 19.3312 27.7213 17.1692 27.9324C15.0071 28.1436 12.8283 27.7639 10.8652 26.8338C8.902 25.9037 7.22812 24.4582 6.02209 22.6514C4.81606 20.8446 4.12311 18.7443 4.01715 16.5746C3.9112 14.4048 4.39622 12.247 5.42047 10.3313C6.44472 8.41557 7.96979 6.81382 9.83299 5.6969C11.6962 4.57998 13.8276 3.98978 16 3.98926V3.99992Z" fill="white"/>
</svg>
